<?xml version="1.0" encoding="UTF-8" standalone="no"?>
<!DOCTYPE svg PUBLIC "-//W3C//DTD SVG 1.1//EN" "http://www.w3.org/Graphics/SVG/1.1/DTD/svg11.dtd">
<svg width="100%" height="100%" viewBox="0 0 702 422" version="1.1" xmlns="http://www.w3.org/2000/svg" xmlns:xlink="http://www.w3.org/1999/xlink" xml:space="preserve" xmlns:serif="http://www.serif.com/" style="fill-rule:evenodd;clip-rule:evenodd;stroke-linecap:round;stroke-linejoin:round;stroke-miterlimit:1.5;">
    <g id="_1" serif:id="1" transform="matrix(1,0,0,1,-526.312,-205.339)">
        <rect x="526.312" y="205.339" width="701.751" height="421.712" style="fill:none;"/>
        <g transform="matrix(2.70404,0,0,1.1474,-9828.28,-274.022)">
            <g transform="matrix(0.0856243,-9.25102e-05,-3.05643e-05,0.22085,2899.22,-457.012)">
                <path d="M12946.3,4817.9L13167.2,4818.25" style="fill:none;stroke:rgb(67,67,71);stroke-width:5.12px;stroke-dasharray:15.35,30.7,0,0,0,0;"/>
            </g>
            <g transform="matrix(0.241221,0,0,0.570796,3822.5,358.779)">
                <path d="M325.226,359.184C304.033,359.184 287.562,375.812 287.562,396.788C287.562,417.872 304.033,434.391 325.226,434.391C346.308,434.391 362.779,417.872 362.779,396.788C362.779,375.812 346.308,359.184 325.226,359.184ZM325.226,429.283C307.108,429.283 293.053,415.155 293.053,396.788C293.053,378.53 307.108,364.292 325.226,364.292C343.234,364.292 357.289,378.53 357.289,396.788C357.289,415.155 343.234,429.283 325.226,429.283Z" style="fill:rgb(243,116,105);fill-rule:nonzero;"/>
            </g>
            <g transform="matrix(0.241221,0,0,0.570796,3822.5,358.779)">
                <path d="M408.788,378.747C398.576,378.747 390.89,383.42 386.717,391.354L386.717,380.051L381.336,380.051L381.336,433.196L386.717,433.196L386.717,406.569C386.717,392.332 395.282,383.746 408.129,383.746C418.231,383.746 425.039,391.136 425.039,402.331L425.039,433.196L430.42,433.196L430.42,401.57C430.42,387.985 421.745,378.747 408.788,378.747Z" style="fill:rgb(243,116,105);fill-rule:nonzero;"/>
            </g>
            <g transform="matrix(0.241221,0,0,0.570796,3822.5,358.779)">
                <path d="M506.954,373.748L506.954,360.38L443.047,360.38L443.047,373.748L467.534,373.748L467.534,433.196L482.468,433.196L482.468,373.748L506.954,373.748Z" style="fill:rgb(67,67,71);fill-rule:nonzero;"/>
            </g>
            <g transform="matrix(0.241221,0,0,0.570796,3822.5,358.779)">
                <path d="M552.084,378.203C543.19,378.203 536.821,382.551 532.429,388.854L532.429,378.964L517.935,378.964L517.935,433.196L532.429,433.196L532.429,415.698C532.429,400.592 538.578,392.441 551.975,392.441L555.159,392.441L555.928,378.638C554.61,378.203 553.512,378.203 552.084,378.203Z" style="fill:rgb(67,67,71);fill-rule:nonzero;"/>
            </g>
            <g transform="matrix(0.241221,0,0,0.570796,3822.5,358.779)">
                <path d="M621.262,378.964L606.768,378.964L606.768,383.311C602.156,379.508 596.116,377.334 588.65,377.334C574.704,377.334 561.747,389.072 561.747,406.134C561.747,423.197 574.704,434.826 588.65,434.826C596.116,434.826 602.156,432.652 606.768,428.957L606.768,433.196L621.262,433.196L621.262,378.964ZM591.175,422.328C582.391,422.328 575.802,416.133 575.802,406.134C575.802,396.136 582.391,389.832 591.175,389.832C598.971,389.832 606.768,396.136 606.768,406.134C606.768,416.133 598.971,422.328 591.175,422.328Z" style="fill:rgb(67,67,71);fill-rule:nonzero;"/>
            </g>
            <g transform="matrix(0.241221,0,0,0.570796,3822.5,358.779)">
                <path d="M662.659,421.676C653.545,421.676 647.396,415.481 647.396,406.134C647.396,396.897 653.545,390.484 662.659,390.484C669.027,390.484 674.188,393.636 676.165,401.244L690.11,397.331C686.487,385.159 675.396,377.334 662.659,377.334C646.627,377.334 633.341,389.072 633.341,406.134C633.341,423.197 646.627,434.826 662.659,434.826C675.726,434.826 687.036,426.892 690.11,414.503L676.714,411.134C674.188,418.633 669.027,421.676 662.659,421.676Z" style="fill:rgb(67,67,71);fill-rule:nonzero;"/>
            </g>
            <g transform="matrix(0.241221,0,0,0.570796,3822.5,358.779)">
                <path d="M760.056,433.196L730.738,404.939L757.201,378.964L738.974,378.964L719.318,397.875L716.683,397.875L716.683,354.946L702.189,354.946L702.189,433.196L716.683,433.196L716.683,412.003L719.209,412.003L740.731,433.196L760.056,433.196Z" style="fill:rgb(67,67,71);fill-rule:nonzero;"/>
            </g>
            <g transform="matrix(0.018066,0,0,0.0424593,3997.08,538.034)">
                <path d="M1623.48,684.479C1623.48,1090.38 1261.35,1443.04 1139.48,1550.23C1116.91,1570.08 1083.09,1570.08 1060.52,1550.23C938.65,1443.04 576.521,1090.38 576.521,684.479C576.521,395.367 810.888,161 1100,161C1389.11,161 1623.48,395.367 1623.48,684.479ZM1486.26,684.479C1486.26,470.942 1313.12,297.836 1099.54,297.836C885.961,297.836 712.82,470.942 712.82,684.479C712.82,898.016 885.961,1071.12 1099.54,1071.12C1313.12,1071.12 1486.26,898.016 1486.26,684.479Z" style="fill:rgb(243,116,105);"/>
            </g>
            <g transform="matrix(0.100377,5.68569e-17,-2.46819e-17,0.233045,4016.92,560.884)">
                <path d="M-13.969,50.573L-13.969,30.954C-13.969,23.239 -7.715,16.984 0,16.984C7.715,16.984 13.969,23.239 13.969,30.954L13.969,50.573C13.969,42.858 7.715,36.604 0,36.604C-7.715,36.604 -13.969,42.858 -13.969,50.573Z" style="fill:rgb(254,239,223);"/>
            </g>
            <g transform="matrix(0.100377,5.68569e-17,-2.46819e-17,0.233045,4016.92,567.803)">
                <path d="M13.969,20.886L13.969,58.849C13.969,59.369 13.941,59.881 13.885,60.386C9.48,61.355 4.905,61.865 0.213,61.865C-4.634,61.865 -9.356,61.32 -13.896,60.289C-13.944,59.815 -13.969,59.335 -13.969,58.849L-13.969,20.886C-13.969,13.171 -7.715,6.917 0,6.917C7.715,6.917 13.969,13.171 13.969,20.886Z" style="fill:rgb(248,149,37);"/>
            </g>
            <g transform="matrix(0.100377,5.68569e-17,-2.46819e-17,0.233045,4020.71,560.884)">
                <path d="M-13.969,25.219L-13.969,5.599C-13.969,-2.116 -7.715,-8.371 0,-8.371C7.715,-8.371 13.969,-2.116 13.969,5.599L13.969,25.219C13.969,17.504 7.715,11.25 0,11.25C-7.715,11.25 -13.969,17.504 -13.969,25.219Z" style="fill:rgb(220,242,239);"/>
            </g>
            <g transform="matrix(0.100377,5.68569e-17,-2.46819e-17,0.233045,4020.71,567.803)">
                <path d="M13.969,-4.468L13.969,35.628C6.892,45.27 -2.765,52.857 -13.969,57.341L-13.969,-4.468C-13.969,-12.183 -7.715,-18.437 0,-18.437C7.715,-18.437 13.969,-12.183 13.969,-4.468Z" style="fill:rgb(20,168,149);"/>
            </g>
            <g transform="matrix(0.100377,5.68569e-17,-2.46819e-17,0.233045,4013.18,560.035)">
                <path d="M-13.969,68.958L-13.969,53.725C-13.969,46.01 -7.715,39.755 0,39.755C7.715,39.755 13.969,46.01 13.969,53.725L13.969,76.991C13.969,69.276 7.715,63.022 -0,63.022C-5.504,63.022 -10.265,66.205 -12.541,70.831C-13.028,70.216 -13.504,69.592 -13.969,68.958Z" style="fill:rgb(253,230,222);"/>
            </g>
            <g transform="matrix(0.100377,5.68569e-17,-2.46819e-17,0.233045,4013.18,573.202)">
                <path d="M13.969,20.493L13.969,32.038C13.969,32.743 13.917,33.435 13.816,34.112C3.412,29.917 -5.651,23.043 -12.541,14.334C-10.265,9.707 -5.504,6.524 0,6.524C7.715,6.524 13.969,12.778 13.969,20.493Z" style="fill:rgb(241,90,41);"/>
            </g>
            <g transform="matrix(0.100377,5.68569e-17,-2.46819e-17,0.233045,4013.18,573.202)">
                <path d="M13.969,32.038L13.969,34.173C13.918,34.153 13.867,34.133 13.816,34.112C13.917,33.435 13.969,32.743 13.969,32.038Z" style="fill:rgb(251,170,33);"/>
            </g>
            <g transform="matrix(0.100228,5.57284e-17,-2.46453e-17,0.228419,4013.08,572.64)">
                <path d="M13.969,32.038L13.969,34.173C13.918,34.153 13.867,34.133 13.816,34.112C13.917,33.435 13.969,32.743 13.969,32.038Z" style="fill:rgb(251,170,33);"/>
            </g>
        </g>
        <g transform="matrix(2.70404,0,0,1.1474,-9847.64,-274.022)">
            <g transform="matrix(0.259865,0,0,0.612413,3804.33,350.84)">
                <path d="M293.441,460.773C284.017,460.773 276.692,468.168 276.692,477.496C276.692,486.872 284.017,494.219 293.441,494.219C302.817,494.219 310.142,486.872 310.142,477.496C310.142,468.168 302.817,460.773 293.441,460.773ZM293.441,491.947C285.384,491.947 279.133,485.664 279.133,477.496C279.133,469.376 285.384,463.045 293.441,463.045C301.45,463.045 307.7,469.376 307.7,477.496C307.7,485.664 301.45,491.947 293.441,491.947Z" style="fill:rgb(67,67,71);fill-rule:nonzero;"/>
            </g>
            <g transform="matrix(0.259865,0,0,0.612413,3804.33,350.84)">
                <path d="M330.993,469.859C326.257,469.859 322.741,472.759 320.836,476.674L320.836,470.053L318.443,470.053L318.443,493.687L320.836,493.687L320.836,483.827C320.836,477.544 324.401,472.131 330.993,472.131C331.433,472.131 331.921,472.131 332.409,472.228L332.654,470.004C331.97,469.859 331.53,469.859 330.993,469.859Z" style="fill:rgb(67,67,71);fill-rule:nonzero;"/>
            </g>
            <g transform="matrix(0.259865,0,0,0.612413,3804.33,350.84)">
                <path d="M360.244,470.053L357.9,470.053L357.9,474.548C355.947,471.358 352.48,469.521 348.133,469.521C341.736,469.521 336.267,474.064 336.267,480.879C336.267,487.742 341.736,492.334 348.133,492.334C352.48,492.334 355.947,490.449 357.9,487.259L357.9,491.754C357.851,497.167 354.14,500.695 348.622,500.695C343.446,500.695 340.564,498.569 338.953,494.992L336.853,496.249C338.611,500.357 342.469,502.87 348.622,502.87C355.556,502.87 360.195,498.665 360.244,491.995L360.244,470.053ZM348.426,490.255C343.055,490.255 338.562,486.631 338.562,480.879C338.562,475.176 343.055,471.599 348.426,471.599C353.407,471.599 357.9,475.176 357.9,480.879C357.9,486.631 353.407,490.255 348.426,490.255Z" style="fill:rgb(67,67,71);fill-rule:nonzero;"/>
            </g>
            <g transform="matrix(0.259865,0,0,0.612413,3804.33,350.84)">
                <path d="M392.18,470.053L389.788,470.053L389.788,475.031C387.688,471.551 383.879,469.473 379.533,469.473C372.989,469.473 367.422,474.354 367.422,481.846C367.422,489.385 372.989,494.219 379.533,494.219C383.879,494.219 387.688,492.189 389.788,488.709L389.788,493.687L392.18,493.687L392.18,470.053ZM379.777,492.092C374.308,492.092 369.766,488.177 369.766,481.846C369.766,475.563 374.308,471.599 379.777,471.599C384.904,471.599 389.788,475.563 389.788,481.846C389.788,488.177 384.904,492.092 379.777,492.092Z" style="fill:rgb(67,67,71);fill-rule:nonzero;"/>
            </g>
            <g transform="matrix(0.259865,0,0,0.612413,3804.33,350.84)">
                <path d="M414.253,469.473C409.711,469.473 406.293,471.551 404.437,475.079L404.437,470.053L402.044,470.053L402.044,493.687L404.437,493.687L404.437,481.846C404.437,475.514 408.246,471.696 413.96,471.696C418.452,471.696 421.48,474.983 421.48,479.961L421.48,493.687L423.873,493.687L423.873,479.622C423.873,473.581 420.015,469.473 414.253,469.473Z" style="fill:rgb(67,67,71);fill-rule:nonzero;"/>
            </g>
            <g transform="matrix(0.259865,0,0,0.612413,3804.33,350.84)">
                <path d="M434.86,461.015C433.737,461.015 432.955,461.836 432.955,462.851C432.955,463.866 433.737,464.639 434.86,464.639C435.934,464.639 436.715,463.866 436.715,462.851C436.715,461.836 435.934,461.015 434.86,461.015ZM436.032,493.687L436.032,470.053L433.688,470.053L433.688,493.687L436.032,493.687Z" style="fill:rgb(67,67,71);fill-rule:nonzero;"/>
            </g>
            <g transform="matrix(0.259865,0,0,0.612413,3804.33,350.84)">
                <path d="M464.062,491.657L446.677,491.657L463.573,471.696L463.573,470.053L444.138,470.053L444.138,472.083L460.546,472.083L443.65,492.044L443.65,493.687L464.062,493.687L464.062,491.657Z" style="fill:rgb(67,67,71);fill-rule:nonzero;"/>
            </g>
            <g transform="matrix(0.259865,0,0,0.612413,3804.33,350.84)">
                <path d="M493.263,470.053L490.871,470.053L490.871,475.031C488.771,471.551 484.962,469.473 480.616,469.473C474.072,469.473 468.505,474.354 468.505,481.846C468.505,489.385 474.072,494.219 480.616,494.219C484.962,494.219 488.771,492.189 490.871,488.709L490.871,493.687L493.263,493.687L493.263,470.053ZM480.86,492.092C475.391,492.092 470.849,488.177 470.849,481.846C470.849,475.563 475.391,471.599 480.86,471.599C485.987,471.599 490.871,475.563 490.871,481.846C490.871,488.177 485.987,492.092 480.86,492.092Z" style="fill:rgb(67,67,71);fill-rule:nonzero;"/>
            </g>
            <g transform="matrix(0.259865,0,0,0.612413,3804.33,350.84)">
                <path d="M501.223,500.067L505.569,487.597L505.569,487.452L502.688,487.452L499.319,500.067L501.223,500.067Z" style="fill:rgb(67,67,71);fill-rule:nonzero;"/>
            </g>
            <g transform="matrix(0.259865,0,0,0.612413,3804.33,350.84)">
                <path d="M524.32,487.211C524.955,491.657 529.008,494.219 534.624,494.219C540.093,494.219 543.853,491.657 543.853,487.259C543.853,483.489 540.875,482.087 537.749,481.362L531.987,480.106C529.399,479.526 527.592,478.607 527.592,476.142C527.592,473.291 530.083,471.454 533.892,471.454C537.847,471.454 540.484,473.436 541.119,476.432L543.316,475.852C542.437,472.179 539.165,469.473 533.94,469.473C528.764,469.473 525.199,472.228 525.199,476.287C525.199,479.477 527.299,481.217 531.108,482.039L536.968,483.296C539.556,483.876 541.509,484.891 541.509,487.404C541.509,490.449 538.775,492.237 534.771,492.237C530.327,492.237 527.006,490.159 526.664,486.631L524.32,487.211Z" style="fill:rgb(67,67,71);fill-rule:nonzero;"/>
            </g>
            <g transform="matrix(0.259865,0,0,0.612413,3804.33,350.84)">
                <path d="M553.278,461.015C552.155,461.015 551.374,461.836 551.374,462.851C551.374,463.866 552.155,464.639 553.278,464.639C554.352,464.639 555.134,463.866 555.134,462.851C555.134,461.836 554.352,461.015 553.278,461.015ZM554.45,493.687L554.45,470.053L552.106,470.053L552.106,493.687L554.45,493.687Z" style="fill:rgb(67,67,71);fill-rule:nonzero;"/>
            </g>
            <g transform="matrix(0.259865,0,0,0.612413,3804.33,350.84)">
                <path d="M593.369,469.473C589.121,469.473 585.849,471.599 584.14,475.031C583.017,471.599 579.892,469.473 575.887,469.473C571.834,469.473 568.807,471.454 567.195,474.693L567.195,470.053L564.802,470.053L564.802,493.687L567.195,493.687L567.195,481.266C567.195,475.321 570.467,471.696 575.35,471.696C579.403,471.696 582.187,474.354 582.187,478.414L582.187,493.687L584.58,493.687L584.58,481.266C584.58,475.321 587.851,471.696 592.832,471.696C596.885,471.696 599.669,474.354 599.669,478.414L599.669,493.687L602.062,493.687L602.062,478.076C602.062,472.904 598.399,469.473 593.369,469.473Z" style="fill:rgb(67,67,71);fill-rule:nonzero;"/>
            </g>
            <g transform="matrix(0.259865,0,0,0.612413,3804.33,350.84)">
                <path d="M624.134,469.473C619.739,469.473 615.93,471.551 613.83,475.079L613.83,470.053L611.437,470.053L611.437,501.903L613.83,501.903L613.83,488.612C615.93,492.14 619.739,494.219 624.134,494.219C630.677,494.219 636.195,489.385 636.195,481.846C636.195,474.354 630.677,469.473 624.134,469.473ZM623.841,492.092C618.713,492.092 613.83,488.177 613.83,481.846C613.83,475.563 618.713,471.599 623.841,471.599C629.31,471.599 633.852,475.563 633.852,481.846C633.852,488.177 629.31,492.092 623.841,492.092Z" style="fill:rgb(67,67,71);fill-rule:nonzero;"/>
            </g>
            <g transform="matrix(0.259865,0,0,0.612413,3804.33,350.84)">
                <rect x="643.764" y="458.888" width="2.393" height="34.799" style="fill:rgb(67,67,71);"/>
            </g>
            <g transform="matrix(0.259865,0,0,0.612413,3804.33,350.84)">
                <path d="M657.682,461.015C656.559,461.015 655.777,461.836 655.777,462.851C655.777,463.866 656.559,464.639 657.682,464.639C658.756,464.639 659.537,463.866 659.537,462.851C659.537,461.836 658.756,461.015 657.682,461.015ZM658.854,493.687L658.854,470.053L656.51,470.053L656.51,493.687L658.854,493.687Z" style="fill:rgb(67,67,71);fill-rule:nonzero;"/>
            </g>
            <g transform="matrix(0.259865,0,0,0.612413,3804.33,350.84)">
                <path d="M688.983,470.053L672.283,470.053L672.283,465.848C672.283,462.416 674.285,460.145 677.654,460.145C679.021,460.145 680.193,460.483 681.268,461.16L682.049,459.323C680.731,458.453 679.266,458.018 677.508,458.018C672.771,458.018 669.89,461.063 669.89,465.848L669.89,470.053L665.495,470.053L665.495,472.083L669.89,472.083L669.89,493.687L672.283,493.687L672.283,472.083L686.639,472.083L686.639,493.687L688.983,493.687L688.983,470.053ZM687.811,461.015C686.688,461.015 685.907,461.836 685.907,462.851C685.907,463.866 686.688,464.639 687.811,464.639C688.886,464.639 689.667,463.866 689.667,462.851C689.667,461.836 688.886,461.015 687.811,461.015Z" style="fill:rgb(67,67,71);fill-rule:nonzero;"/>
            </g>
            <g transform="matrix(0.259865,0,0,0.612413,3804.33,350.84)">
                <path d="M709.346,492.044C703.975,492.044 699.385,488.177 699.385,481.846C699.385,475.756 703.975,471.696 709.346,471.696C713.302,471.696 717.013,473.823 718.136,477.641L720.383,476.916C718.966,472.373 714.425,469.473 709.346,469.473C702.754,469.473 697.041,474.451 697.041,481.846C697.041,489.434 702.754,494.219 709.346,494.219C714.474,494.219 719.064,491.512 720.334,487.017L718.136,486.389C716.964,490.062 713.302,492.044 709.346,492.044Z" style="fill:rgb(67,67,71);fill-rule:nonzero;"/>
            </g>
            <g transform="matrix(0.259865,0,0,0.612413,3804.33,350.84)">
                <path d="M750.024,470.053L747.631,470.053L747.631,475.031C745.531,471.551 741.722,469.473 737.376,469.473C730.833,469.473 725.266,474.354 725.266,481.846C725.266,489.385 730.833,494.219 737.376,494.219C741.722,494.219 745.531,492.189 747.631,488.709L747.631,493.687L750.024,493.687L750.024,470.053ZM737.62,492.092C732.151,492.092 727.61,488.177 727.61,481.846C727.61,475.563 732.151,471.599 737.62,471.599C742.748,471.599 747.631,475.563 747.631,481.846C747.631,488.177 742.748,492.092 737.62,492.092Z" style="fill:rgb(67,67,71);fill-rule:nonzero;"/>
            </g>
            <g transform="matrix(0.259865,0,0,0.612413,3804.33,350.84)">
                <path d="M794.656,470.004L792.019,470.004L782.204,490.787L772.486,470.004L769.752,470.004L780.885,493.494L776.93,501.903L779.567,501.903L794.656,470.004Z" style="fill:rgb(67,67,71);fill-rule:nonzero;"/>
            </g>
            <g transform="matrix(0.259865,0,0,0.612413,3804.33,350.84)">
                <path d="M836.456,470.053L834.064,470.053L834.064,475.031C831.964,471.551 828.155,469.473 823.809,469.473C817.265,469.473 811.698,474.354 811.698,481.846C811.698,489.385 817.265,494.219 823.809,494.219C828.155,494.219 831.964,492.189 834.064,488.709L834.064,493.687L836.456,493.687L836.456,470.053ZM824.053,492.092C818.584,492.092 814.042,488.177 814.042,481.846C814.042,475.563 818.584,471.599 824.053,471.599C829.18,471.599 834.064,475.563 834.064,481.846C834.064,488.177 829.18,492.092 824.053,492.092Z" style="fill:rgb(67,67,71);fill-rule:nonzero;"/>
            </g>
            <g transform="matrix(0.259865,0,0,0.612413,3804.33,350.84)">
                <path d="M858.529,469.473C853.987,469.473 850.569,471.551 848.713,475.079L848.713,458.888L846.321,458.888L846.321,493.687L848.713,493.687L848.713,481.846C848.713,475.514 852.522,471.696 858.236,471.696C862.728,471.696 865.756,474.983 865.756,479.961L865.756,493.687L868.149,493.687L868.149,479.622C868.149,473.581 864.291,469.473 858.529,469.473Z" style="fill:rgb(67,67,71);fill-rule:nonzero;"/>
            </g>
            <g transform="matrix(0.259865,0,0,0.612413,3804.33,350.84)">
                <path d="M887.73,469.521C880.65,469.521 875.18,474.693 875.18,481.846C875.18,488.999 880.65,494.219 887.73,494.219C894.811,494.219 900.28,488.999 900.28,481.846C900.28,474.693 894.811,469.521 887.73,469.521ZM887.73,492.092C882.017,492.092 877.524,487.79 877.524,481.846C877.524,475.852 882.017,471.599 887.73,471.599C893.444,471.599 897.936,475.852 897.936,481.846C897.936,487.79 893.444,492.092 887.73,492.092Z" style="fill:rgb(67,67,71);fill-rule:nonzero;"/>
            </g>
            <g transform="matrix(0.259865,0,0,0.612413,3804.33,350.84)">
                <path d="M920.448,469.859C915.711,469.859 912.195,472.759 910.291,476.674L910.291,470.053L907.898,470.053L907.898,493.687L910.291,493.687L910.291,483.827C910.291,477.544 913.856,472.131 920.448,472.131C920.888,472.131 921.376,472.131 921.864,472.228L922.108,470.004C921.425,469.859 920.985,469.859 920.448,469.859Z" style="fill:rgb(67,67,71);fill-rule:nonzero;"/>
            </g>
            <g transform="matrix(0.259865,0,0,0.612413,3804.33,350.84)">
                <path d="M940.616,469.859C935.879,469.859 932.363,472.759 930.459,476.674L930.459,470.053L928.066,470.053L928.066,493.687L930.459,493.687L930.459,483.827C930.459,477.544 934.024,472.131 940.616,472.131C941.055,472.131 941.544,472.131 942.032,472.228L942.276,470.004C941.593,469.859 941.153,469.859 940.616,469.859Z" style="fill:rgb(67,67,71);fill-rule:nonzero;"/>
            </g>
            <g transform="matrix(0.259865,0,0,0.612413,3804.33,350.84)">
                <path d="M970.257,470.053L967.864,470.053L967.864,475.031C965.765,471.551 961.956,469.473 957.61,469.473C951.066,469.473 945.499,474.354 945.499,481.846C945.499,489.385 951.066,494.219 957.61,494.219C961.956,494.219 965.765,492.189 967.864,488.709L967.864,493.687L970.257,493.687L970.257,470.053ZM957.854,492.092C952.384,492.092 947.843,488.177 947.843,481.846C947.843,475.563 952.384,471.599 957.854,471.599C962.981,471.599 967.864,475.563 967.864,481.846C967.864,488.177 962.981,492.092 957.854,492.092Z" style="fill:rgb(67,67,71);fill-rule:nonzero;"/>
            </g>
        </g>
    </g>
</svg>
