<?xml version="1.0" encoding="UTF-8" standalone="no"?>
<svg
   width="100%"
   height="100%"
   viewBox="0 0 702 422"
   version="1.1"
   xml:space="preserve"
   style="fill-rule:evenodd;clip-rule:evenodd;stroke-linecap:round;stroke-linejoin:round;stroke-miterlimit:1.5;"
   id="svg43"
   sodipodi:docname="2.svg"
   inkscape:version="1.4.2 (f4327f4, 2025-05-13)"
   xmlns:inkscape="http://www.inkscape.org/namespaces/inkscape"
   xmlns:sodipodi="http://sodipodi.sourceforge.net/DTD/sodipodi-0.dtd"
   xmlns="http://www.w3.org/2000/svg"
   xmlns:svg="http://www.w3.org/2000/svg"
   xmlns:serif="http://www.serif.com/"><defs
   id="defs43" /><sodipodi:namedview
   id="namedview43"
   pagecolor="#ffffff"
   bordercolor="#000000"
   borderopacity="0.25"
   inkscape:showpageshadow="2"
   inkscape:pageopacity="0.0"
   inkscape:pagecheckerboard="0"
   inkscape:deskcolor="#d1d1d1"
   inkscape:zoom="1.8317536"
   inkscape:cx="312.81501"
   inkscape:cy="211"
   inkscape:window-width="1920"
   inkscape:window-height="991"
   inkscape:window-x="-9"
   inkscape:window-y="-9"
   inkscape:window-maximized="1"
   inkscape:current-layer="g25" />
    <g
   transform="matrix(1,0,0,1,-770.242,0)"
   id="g43">
        <g
   id="_2"
   serif:id="2"
   transform="matrix(1,0,0,1,243.93,-205.339)">
            <rect
   x="526.312"
   y="205.339"
   width="701.751"
   height="421.712"
   style="fill:none;"
   id="rect1" />
            
            
            
            
            
            
            
            
            
            
            
            
            
            
            
            
            
            
            
            
            
            
            
            
            <g
   transform="matrix(0.56084,0,0,0.56084,526.413,269.899)"
   id="g25">
                
            </g>
            <g
   transform="matrix(0.625121,0,0,0.583886,551.071,245.49)"
   id="g31">
                <path
   d="M324.836,359.832C303.829,359.832 287.502,376.315 287.502,397.106C287.502,418.006 303.829,434.381 324.836,434.381C345.734,434.381 362.061,418.006 362.061,397.106C362.061,376.315 345.734,359.832 324.836,359.832ZM324.836,429.318C306.876,429.318 292.944,415.313 292.944,397.106C292.944,379.008 306.876,364.895 324.836,364.895C342.686,364.895 356.618,379.008 356.618,397.106C356.618,415.313 342.686,429.318 324.836,429.318Z"
   style="fill:rgb(243,116,105);fill-rule:nonzero;"
   id="path25" />
                <path
   d="M407.667,379.223C397.544,379.223 389.925,383.856 385.789,391.72L385.789,380.516L380.455,380.516L380.455,433.196L385.789,433.196L385.789,406.802C385.789,392.689 394.279,384.179 407.014,384.179C417.027,384.179 423.776,391.504 423.776,402.601L423.776,433.196L429.109,433.196L429.109,401.846C429.109,388.38 420.511,379.223 407.667,379.223Z"
   style="fill:rgb(243,116,105);fill-rule:nonzero;"
   id="path26" />
                <path
   d="M504.974,374.268L504.974,361.017L441.626,361.017L441.626,374.268L465.899,374.268L465.899,433.196L480.702,433.196L480.702,374.268L504.974,374.268Z"
   style="fill:rgb(67,67,71);fill-rule:nonzero;"
   id="path27" />
                <path
   d="M549.71,378.685C540.893,378.685 534.58,382.994 530.226,389.242L530.226,379.439L515.859,379.439L515.859,433.196L530.226,433.196L530.226,415.851C530.226,400.877 536.322,392.797 549.601,392.797L552.757,392.797L553.519,379.116C552.213,378.685 551.125,378.685 549.71,378.685Z"
   style="fill:rgb(67,67,71);fill-rule:nonzero;"
   id="path28" />
                <path
   d="M618.282,379.439L603.914,379.439L603.914,383.748C599.343,379.977 593.356,377.823 585.955,377.823C572.132,377.823 559.288,389.458 559.288,406.371C559.288,423.285 572.132,434.812 585.955,434.812C593.356,434.812 599.343,432.657 603.914,428.994L603.914,433.196L618.282,433.196L618.282,379.439ZM588.458,422.423C579.751,422.423 573.22,416.282 573.22,406.371C573.22,396.46 579.751,390.212 588.458,390.212C596.186,390.212 603.914,396.46 603.914,406.371C603.914,416.282 596.186,422.423 588.458,422.423Z"
   style="fill:rgb(67,67,71);fill-rule:nonzero;"
   id="path29" />
                <path
   d="M659.316,421.776C650.282,421.776 644.187,415.636 644.187,406.371C644.187,397.214 650.282,390.858 659.316,390.858C665.63,390.858 670.745,393.982 672.704,401.523L686.528,397.645C682.936,385.579 671.943,377.823 659.316,377.823C643.425,377.823 630.255,389.458 630.255,406.371C630.255,423.285 643.425,434.812 659.316,434.812C672.269,434.812 683.48,426.947 686.528,414.666L673.249,411.327C670.745,418.76 665.63,421.776 659.316,421.776Z"
   style="fill:rgb(67,67,71);fill-rule:nonzero;"
   id="path30" />
                <path
   d="M755.862,433.196L726.8,405.186L753.032,379.439L734.964,379.439L715.481,398.184L712.868,398.184L712.868,355.63L698.501,355.63L698.501,433.196L712.868,433.196L712.868,412.189L715.372,412.189L736.705,433.196L755.862,433.196Z"
   style="fill:rgb(67,67,71);fill-rule:nonzero;"
   id="path31" />
            </g>
            <g
   transform="matrix(2.70404,0,0,1.1474,-10573.9,-276.198)"
   id="g42">
                <g
   transform="matrix(0.111168,-0.000229971,-7.91771e-05,0.362275,2783.7,-1130.79)"
   id="g32">
                    <path
   d="M12946.3,4817.9L13167.2,4818.25"
   style="fill:none;stroke:rgb(67,67,71);stroke-width:7px;stroke-dasharray:14,28,0,0,0,0;"
   id="path32" />
                </g>
                <g
   transform="matrix(1,0,0,1,850.487,72.8676)"
   id="g41">
                    <g
   transform="matrix(0.0381557,0,0,0.0880254,3342.35,395.671)"
   id="g33">
                        <path
   d="M1623.48,684.479C1623.48,1090.38 1261.35,1443.04 1139.48,1550.23C1116.91,1570.08 1083.09,1570.08 1060.52,1550.23C938.65,1443.04 576.521,1090.38 576.521,684.479C576.521,395.367 810.888,161 1100,161C1389.11,161 1623.48,395.367 1623.48,684.479ZM1486.26,684.479C1486.26,470.942 1313.12,297.836 1099.54,297.836C885.961,297.836 712.82,470.942 712.82,684.479C712.82,898.016 885.961,1071.12 1099.54,1071.12C1313.12,1071.12 1486.26,898.016 1486.26,684.479Z"
   style="fill:rgb(243,116,105);"
   id="path33" />
                    </g>
                    <g
   transform="matrix(0.211997,1.17874e-16,-5.21285e-17,0.483143,3384.26,443.044)"
   id="g34">
                        <path
   d="M-13.969,50.573L-13.969,30.954C-13.969,23.239 -7.715,16.984 0,16.984C7.715,16.984 13.969,23.239 13.969,30.954L13.969,50.573C13.969,42.858 7.715,36.604 0,36.604C-7.715,36.604 -13.969,42.858 -13.969,50.573Z"
   style="fill:rgb(248,149,37);fill-opacity:0.5;"
   id="path34" />
                    </g>
                    <g
   transform="matrix(0.211997,1.17874e-16,-5.21285e-17,0.483143,3384.26,457.387)"
   id="g35">
                        <path
   d="M13.969,20.886L13.969,58.849C13.969,59.369 13.941,59.881 13.885,60.386C9.48,61.355 4.905,61.865 0.213,61.865C-4.634,61.865 -9.356,61.32 -13.896,60.289C-13.944,59.815 -13.969,59.335 -13.969,58.849L-13.969,20.886C-13.969,13.171 -7.715,6.917 0,6.917C7.715,6.917 13.969,13.171 13.969,20.886Z"
   style="fill:rgb(248,149,37);"
   id="path35" />
                    </g>
                    <g
   transform="matrix(0.211997,1.17874e-16,-5.21285e-17,0.483143,3392.26,443.044)"
   id="g36">
                        <path
   d="M-13.969,25.219L-13.969,5.599C-13.969,-2.116 -7.715,-8.371 0,-8.371C7.715,-8.371 13.969,-2.116 13.969,5.599L13.969,25.219C13.969,17.504 7.715,11.25 0,11.25C-7.715,11.25 -13.969,17.504 -13.969,25.219Z"
   style="fill:rgb(26,168,149);fill-opacity:0.5;"
   id="path36" />
                    </g>
                    <g
   transform="matrix(0.211997,1.17874e-16,-5.21285e-17,0.483143,3392.26,457.387)"
   id="g37">
                        <path
   d="M13.969,-4.468L13.969,35.628C6.892,45.27 -2.765,52.857 -13.969,57.341L-13.969,-4.468C-13.969,-12.183 -7.715,-18.437 0,-18.437C7.715,-18.437 13.969,-12.183 13.969,-4.468Z"
   style="fill:rgb(20,168,149);"
   id="path37" />
                    </g>
                    <g
   transform="matrix(0.211997,1.17874e-16,-5.21285e-17,0.483143,3376.34,441.284)"
   id="g38">
                        <path
   d="M-13.969,68.958L-13.969,53.725C-13.969,46.01 -7.715,39.755 0,39.755C7.715,39.755 13.969,46.01 13.969,53.725L13.969,76.991C13.969,69.276 7.715,63.022 -0,63.022C-5.504,63.022 -10.265,66.205 -12.541,70.831C-13.028,70.216 -13.504,69.592 -13.969,68.958Z"
   style="fill:rgb(241,90,42);fill-opacity:0.5;"
   id="path38" />
                    </g>
                    <g
   transform="matrix(0.211997,1.17874e-16,-5.21285e-17,0.483143,3376.34,468.58)"
   id="g39">
                        <path
   d="M13.969,20.493L13.969,32.038C13.969,32.743 13.917,33.435 13.816,34.112C3.412,29.917 -5.651,23.043 -12.541,14.334C-10.265,9.707 -5.504,6.524 0,6.524C7.715,6.524 13.969,12.778 13.969,20.493Z"
   style="fill:rgb(241,90,41);"
   id="path39" />
                    </g>
                    <g
   transform="matrix(0.211997,1.17874e-16,-5.21285e-17,0.483143,3376.34,468.58)"
   id="g40">
                        <path
   d="M13.969,32.038L13.969,34.173C13.918,34.153 13.867,34.133 13.816,34.112C13.917,33.435 13.969,32.743 13.969,32.038Z"
   style="fill:rgb(251,170,33);"
   id="path40" />
                    </g>
                </g>
            </g>
        </g>
    </g>
</svg>
