<?xml version="1.0" encoding="UTF-8" standalone="no"?>
<svg
   width="701.75098"
   height="421.71201"
   viewBox="0 0 701.75098 421.71201"
   version="1.1"
   xml:space="preserve"
   style="clip-rule:evenodd;fill-rule:evenodd;stroke-linecap:round;stroke-linejoin:round;stroke-miterlimit:1.5"
   id="svg43"
   sodipodi:docname="2.svg"
   inkscape:version="1.4.2 (f4327f4, 2025-05-13)"
   xmlns:inkscape="http://www.inkscape.org/namespaces/inkscape"
   xmlns:sodipodi="http://sodipodi.sourceforge.net/DTD/sodipodi-0.dtd"
   xmlns="http://www.w3.org/2000/svg"
   xmlns:svg="http://www.w3.org/2000/svg"
   xmlns:serif="http://www.serif.com/"><defs
   id="defs43" /><sodipodi:namedview
   id="namedview43"
   pagecolor="#ffffff"
   bordercolor="#000000"
   borderopacity="0.25"
   inkscape:showpageshadow="2"
   inkscape:pageopacity="0.0"
   inkscape:pagecheckerboard="0"
   inkscape:deskcolor="#d1d1d1"
   inkscape:zoom="0.9158768"
   inkscape:cx="577.5886"
   inkscape:cy="102.08797"
   inkscape:window-width="1920"
   inkscape:window-height="991"
   inkscape:window-x="-9"
   inkscape:window-y="-9"
   inkscape:window-maximized="1"
   inkscape:current-layer="g25" />
    <g
   transform="translate(-770.24201)"
   id="g43">
        <g
   id="_2"
   serif:id="2"
   transform="translate(243.93,-205.339)">
            <rect
   x="526.31201"
   y="205.339"
   width="701.75098"
   height="421.71201"
   style="fill:none"
   id="rect1" />
            
            
            
            
            
            
            
            
            
            
            
            
            
            
            
            
            
            
            
            
            
            
            
            
            <g
   transform="matrix(0.56084,0,0,0.56084,526.413,269.899)"
   id="g25">
                
            </g>
            <g
   transform="matrix(0.96781025,0,0,0.92031905,351.00512,177.81807)"
   id="g31">
                <path
   d="m 324.836,359.832 c -21.007,0 -37.334,16.483 -37.334,37.274 0,20.9 16.327,37.275 37.334,37.275 20.898,0 37.225,-16.375 37.225,-37.275 0,-20.791 -16.327,-37.274 -37.225,-37.274 z m 0,69.486 c -17.96,0 -31.892,-14.005 -31.892,-32.212 0,-18.098 13.932,-32.211 31.892,-32.211 17.85,0 31.782,14.113 31.782,32.211 0,18.207 -13.932,32.212 -31.782,32.212 z"
   style="fill:#f37469;fill-rule:nonzero"
   id="path25" />
                <path
   d="m 407.667,379.223 c -10.123,0 -17.742,4.633 -21.878,12.497 v -11.204 h -5.334 v 52.68 h 5.334 v -26.394 c 0,-14.113 8.49,-22.623 21.225,-22.623 10.013,0 16.762,7.325 16.762,18.422 v 30.595 h 5.333 v -31.35 c 0,-13.466 -8.598,-22.623 -21.442,-22.623 z"
   style="fill:#f37469;fill-rule:nonzero"
   id="path26" />
                <path
   d="m 504.974,374.268 v -13.251 h -63.348 v 13.251 h 24.273 v 58.928 h 14.803 v -58.928 z"
   style="fill:#434347;fill-rule:nonzero"
   id="path27" />
                <path
   d="m 549.71,378.685 c -8.817,0 -15.13,4.309 -19.484,10.557 v -9.803 h -14.367 v 53.757 h 14.367 v -17.345 c 0,-14.974 6.096,-23.054 19.375,-23.054 h 3.156 l 0.762,-13.681 c -1.306,-0.431 -2.394,-0.431 -3.809,-0.431 z"
   style="fill:#434347;fill-rule:nonzero"
   id="path28" />
                <path
   d="m 618.282,379.439 h -14.368 v 4.309 c -4.571,-3.771 -10.558,-5.925 -17.959,-5.925 -13.823,0 -26.667,11.635 -26.667,28.548 0,16.914 12.844,28.441 26.667,28.441 7.401,0 13.388,-2.155 17.959,-5.818 v 4.202 h 14.368 z m -29.824,42.984 c -8.707,0 -15.238,-6.141 -15.238,-16.052 0,-9.911 6.531,-16.159 15.238,-16.159 7.728,0 15.456,6.248 15.456,16.159 0,9.911 -7.728,16.052 -15.456,16.052 z"
   style="fill:#434347;fill-rule:nonzero"
   id="path29" />
                <path
   d="m 659.316,421.776 c -9.034,0 -15.129,-6.14 -15.129,-15.405 0,-9.157 6.095,-15.513 15.129,-15.513 6.314,0 11.429,3.124 13.388,10.665 l 13.824,-3.878 c -3.592,-12.066 -14.585,-19.822 -27.212,-19.822 -15.891,0 -29.061,11.635 -29.061,28.548 0,16.914 13.17,28.441 29.061,28.441 12.953,0 24.164,-7.865 27.212,-20.146 l -13.279,-3.339 c -2.504,7.433 -7.619,10.449 -13.933,10.449 z"
   style="fill:#434347;fill-rule:nonzero"
   id="path30" />
                <path
   d="m 755.862,433.196 -29.062,-28.01 26.232,-25.747 h -18.068 l -19.483,18.745 h -2.613 V 355.63 h -14.367 v 77.566 h 14.367 v -21.007 h 2.504 l 21.333,21.007 z"
   style="fill:#434347;fill-rule:nonzero"
   id="path31" />
            </g>
            <g
   transform="matrix(4.1863857,0,0,1.8085278,-16872.637,-644.46472)"
   id="g42">
                <g
   transform="matrix(0.111168,-2.29971e-4,-7.91771e-5,0.362275,2783.7,-1130.79)"
   id="g32">
                    <path
   d="m 12946.3,4817.9 220.9,0.35"
   style="fill:none;stroke:#434347;stroke-width:7px;stroke-dasharray:14, 28, 0, 0, 0, 0"
   id="path32" />
                </g>
                <g
   transform="translate(850.487,72.8676)"
   id="g41">
                    <g
   transform="matrix(0.0381557,0,0,0.0880254,3342.35,395.671)"
   id="g33">
                        <path
   d="m 1623.48,684.479 c 0,405.901 -362.13,758.561 -484,865.751 -22.57,19.85 -56.39,19.85 -78.96,0 C 938.65,1443.04 576.521,1090.38 576.521,684.479 576.521,395.367 810.888,161 1100,161 c 289.11,0 523.48,234.367 523.48,523.479 z m -137.22,0 c 0,-213.537 -173.14,-386.643 -386.72,-386.643 -213.579,0 -386.72,173.106 -386.72,386.643 0,213.537 173.141,386.641 386.72,386.641 213.58,0 386.72,-173.104 386.72,-386.641 z"
   style="fill:#f37469"
   id="path33" />
                    </g>
                    <g
   transform="matrix(0.211997,0,0,0.483143,3384.26,443.044)"
   id="g34">
                        <path
   d="M -13.969,50.573 V 30.954 c 0,-7.715 6.254,-13.97 13.969,-13.97 7.715,0 13.969,6.255 13.969,13.97 V 50.573 C 13.969,42.858 7.715,36.604 0,36.604 c -7.715,0 -13.969,6.254 -13.969,13.969 z"
   style="fill:#f89525;fill-opacity:0.5"
   id="path34" />
                    </g>
                    <g
   transform="matrix(0.211997,0,0,0.483143,3384.26,457.387)"
   id="g35">
                        <path
   d="m 13.969,20.886 v 37.963 c 0,0.52 -0.028,1.032 -0.084,1.537 -4.405,0.969 -8.98,1.479 -13.672,1.479 -4.847,0 -9.569,-0.545 -14.109,-1.576 -0.048,-0.474 -0.073,-0.954 -0.073,-1.44 V 20.886 c 0,-7.715 6.254,-13.969 13.969,-13.969 7.715,0 13.969,6.254 13.969,13.969 z"
   style="fill:#f89525"
   id="path35" />
                    </g>
                    <g
   transform="matrix(0.211997,0,0,0.483143,3392.26,443.044)"
   id="g36">
                        <path
   d="M -13.969,25.219 V 5.599 c 0,-7.715 6.254,-13.97 13.969,-13.97 7.715,0 13.969,6.255 13.969,13.97 v 19.62 C 13.969,17.504 7.715,11.25 0,11.25 c -7.715,0 -13.969,6.254 -13.969,13.969 z"
   style="fill:#1aa895;fill-opacity:0.5"
   id="path36" />
                    </g>
                    <g
   transform="matrix(0.211997,0,0,0.483143,3392.26,457.387)"
   id="g37">
                        <path
   d="M 13.969,-4.468 V 35.628 C 6.892,45.27 -2.765,52.857 -13.969,57.341 V -4.468 c 0,-7.715 6.254,-13.969 13.969,-13.969 7.715,0 13.969,6.254 13.969,13.969 z"
   style="fill:#14a895"
   id="path37" />
                    </g>
                    <g
   transform="matrix(0.211997,0,0,0.483143,3376.34,441.284)"
   id="g38">
                        <path
   d="M -13.969,68.958 V 53.725 c 0,-7.715 6.254,-13.97 13.969,-13.97 7.715,0 13.969,6.255 13.969,13.97 V 76.991 C 13.969,69.276 7.715,63.022 0,63.022 c -5.504,0 -10.265,3.183 -12.541,7.809 -0.487,-0.615 -0.963,-1.239 -1.428,-1.873 z"
   style="fill:#f15a2a;fill-opacity:0.5"
   id="path38" />
                    </g>
                    <g
   transform="matrix(0.211997,0,0,0.483143,3376.34,468.58)"
   id="g39">
                        <path
   d="m 13.969,20.493 v 11.545 c 0,0.705 -0.052,1.397 -0.153,2.074 C 3.412,29.917 -5.651,23.043 -12.541,14.334 -10.265,9.707 -5.504,6.524 0,6.524 c 7.715,0 13.969,6.254 13.969,13.969 z"
   style="fill:#f15a29"
   id="path39" />
                    </g>
                    <g
   transform="matrix(0.211997,0,0,0.483143,3376.34,468.58)"
   id="g40">
                        <path
   d="m 13.969,32.038 v 2.135 c -0.051,-0.02 -0.102,-0.04 -0.153,-0.061 0.101,-0.677 0.153,-1.369 0.153,-2.074 z"
   style="fill:#fbaa21"
   id="path40" />
                    </g>
                </g>
            </g>
        </g>
    </g>
</svg>
