<?xml version="1.0" encoding="UTF-8" standalone="no"?>
<!DOCTYPE svg PUBLIC "-//W3C//DTD SVG 1.1//EN" "http://www.w3.org/Graphics/SVG/1.1/DTD/svg11.dtd">
<svg width="100%" height="100%" viewBox="0 0 702 422" version="1.1" xmlns="http://www.w3.org/2000/svg" xmlns:xlink="http://www.w3.org/1999/xlink" xml:space="preserve" xmlns:serif="http://www.serif.com/" style="fill-rule:evenodd;clip-rule:evenodd;stroke-linecap:round;stroke-linejoin:round;stroke-miterlimit:1.5;">
    <g transform="matrix(1,0,0,1,-770.242,0)">
        <g id="_2" serif:id="2" transform="matrix(1,0,0,1,243.93,-205.339)">
            <rect x="526.312" y="205.339" width="701.751" height="421.712" style="fill:none;"/>
            <g transform="matrix(0.56084,0,0,0.56084,526.413,269.899)">
                <path d="M293.246,460.676C283.724,460.676 276.301,468.119 276.301,477.496C276.301,486.921 283.724,494.315 293.246,494.315C302.719,494.315 310.142,486.921 310.142,477.496C310.142,468.119 302.719,460.676 293.246,460.676ZM293.246,490.69C285.921,490.69 280.208,484.987 280.208,477.496C280.208,470.053 285.921,464.253 293.246,464.253C300.522,464.253 306.235,470.053 306.235,477.496C306.235,484.987 300.522,490.69 293.246,490.69Z" style="fill:rgb(67,67,71);fill-rule:nonzero;"/>
            </g>
            <g transform="matrix(0.56084,0,0,0.56084,526.413,269.899)">
                <path d="M331.042,469.618C326.598,469.618 323.327,472.179 321.373,475.707L321.373,469.859L317.613,469.859L317.613,493.687L321.373,493.687L321.373,484.504C321.373,478.076 324.645,473.291 331.042,473.291C331.482,473.291 332.019,473.291 332.458,473.339L332.751,469.811C332.068,469.618 331.628,469.618 331.042,469.618Z" style="fill:rgb(67,67,71);fill-rule:nonzero;"/>
            </g>
            <g transform="matrix(0.56084,0,0,0.56084,526.413,269.899)">
                <path d="M360.537,469.859L356.923,469.859L356.923,473.146C354.97,470.681 351.894,469.279 347.889,469.279C341.541,469.279 336.023,474.016 336.023,480.734C336.023,487.501 341.541,492.285 347.889,492.285C351.894,492.285 354.97,490.884 356.923,488.37L356.923,491.27C356.923,496.345 353.554,499.535 348.475,499.535C343.983,499.535 341.541,497.747 339.832,494.557L336.707,496.684C338.562,500.55 342.518,502.87 348.475,502.87C355.751,502.87 360.537,498.714 360.586,491.754L360.537,469.859ZM348.426,489.095C343.543,489.095 339.637,485.809 339.637,480.734C339.637,475.659 343.543,472.469 348.426,472.469C352.919,472.469 356.923,475.659 356.923,480.734C356.923,485.809 352.919,489.095 348.426,489.095Z" style="fill:rgb(67,67,71);fill-rule:nonzero;"/>
            </g>
            <g transform="matrix(0.56084,0,0,0.56084,526.413,269.899)">
                <path d="M392.473,469.859L388.762,469.859L388.762,473.678C386.613,470.874 383.195,469.279 379.191,469.279C372.794,469.279 367.178,474.258 367.178,481.797C367.178,489.337 372.794,494.315 379.191,494.315C383.195,494.315 386.613,492.72 388.762,489.917L388.762,493.687L392.473,493.687L392.473,469.859ZM379.777,491.029C374.796,491.029 370.792,487.452 370.792,481.797C370.792,476.094 374.796,472.518 379.777,472.518C384.318,472.518 388.762,476.094 388.762,481.797C388.762,487.452 384.318,491.029 379.777,491.029Z" style="fill:rgb(67,67,71);fill-rule:nonzero;"/>
            </g>
            <g transform="matrix(0.56084,0,0,0.56084,526.413,269.899)">
                <path d="M414.35,469.279C410.297,469.279 407.221,470.923 405.267,473.823L405.267,469.859L401.556,469.859L401.556,493.687L405.267,493.687L405.267,482.232C405.267,476.046 408.588,472.663 413.618,472.663C417.622,472.663 420.308,475.659 420.308,480.106L420.308,493.687L424.019,493.687L424.019,479.429C424.019,473.388 420.161,469.279 414.35,469.279Z" style="fill:rgb(67,67,71);fill-rule:nonzero;"/>
            </g>
            <g transform="matrix(0.56084,0,0,0.56084,526.413,269.899)">
                <path d="M434.762,460.193C433.297,460.193 432.223,461.353 432.223,462.658C432.223,464.059 433.297,465.123 434.762,465.123C436.227,465.123 437.35,464.059 437.35,462.658C437.35,461.353 436.227,460.193 434.762,460.193ZM436.667,493.687L436.667,469.859L432.907,469.859L432.907,493.687L436.667,493.687Z" style="fill:rgb(67,67,71);fill-rule:nonzero;"/>
            </g>
            <g transform="matrix(0.56084,0,0,0.56084,526.413,269.899)">
                <path d="M464.599,490.594L448.435,490.594L464.11,472.421L464.11,469.859L444.236,469.859L444.236,472.953L459.471,472.953L443.796,491.174L443.796,493.687L464.599,493.687L464.599,490.594Z" style="fill:rgb(67,67,71);fill-rule:nonzero;"/>
            </g>
            <g transform="matrix(0.56084,0,0,0.56084,526.413,269.899)">
                <path d="M494.191,469.859L490.48,469.859L490.48,473.678C488.331,470.874 484.913,469.279 480.909,469.279C474.512,469.279 468.896,474.258 468.896,481.797C468.896,489.337 474.512,494.315 480.909,494.315C484.913,494.315 488.331,492.72 490.48,489.917L490.48,493.687L494.191,493.687L494.191,469.859ZM481.495,491.029C476.514,491.029 472.51,487.452 472.51,481.797C472.51,476.094 476.514,472.518 481.495,472.518C486.036,472.518 490.48,476.094 490.48,481.797C490.48,487.452 486.036,491.029 481.495,491.029Z" style="fill:rgb(67,67,71);fill-rule:nonzero;"/>
            </g>
            <g transform="matrix(0.56084,0,0,0.56084,526.413,269.899)">
                <path d="M502.639,500.067L507.327,487.452L507.327,487.356L502.932,487.356L499.709,500.067L502.639,500.067Z" style="fill:rgb(67,67,71);fill-rule:nonzero;"/>
            </g>
            <g transform="matrix(0.56084,0,0,0.56084,526.413,269.899)">
                <path d="M525.289,487.259C525.875,491.899 530.27,494.315 535.788,494.315C541.55,494.315 545.506,491.657 545.506,486.969C545.506,483.344 542.82,481.507 539.304,480.734L533.493,479.477C531.149,478.946 529.83,478.076 529.83,476.191C529.83,473.919 531.735,472.276 535.153,472.276C538.718,472.276 541.013,474.064 541.501,476.674L545.066,475.901C544.187,472.034 540.671,469.279 535.251,469.279C529.733,469.279 526.119,472.179 526.119,476.481C526.119,479.767 528.365,481.749 532.37,482.571L537.888,483.779C540.329,484.311 541.843,485.229 541.843,487.211C541.843,489.675 539.548,491.27 536.081,491.27C532.272,491.27 529.342,489.579 529,486.437L525.289,487.259Z" style="fill:rgb(67,67,71);fill-rule:nonzero;"/>
            </g>
            <g transform="matrix(0.56084,0,0,0.56084,526.413,269.899)">
                <path d="M554.784,460.193C553.319,460.193 552.244,461.353 552.244,462.658C552.244,464.059 553.319,465.123 554.784,465.123C556.249,465.123 557.372,464.059 557.372,462.658C557.372,461.353 556.249,460.193 554.784,460.193ZM556.688,493.687L556.688,469.859L552.928,469.859L552.928,493.687L556.688,493.687Z" style="fill:rgb(67,67,71);fill-rule:nonzero;"/>
            </g>
            <g transform="matrix(0.56084,0,0,0.56084,526.413,269.899)">
                <path d="M595.363,469.279C591.262,469.279 588.136,471.164 586.281,474.113C584.865,471.068 581.788,469.279 578.077,469.279C574.317,469.279 571.582,470.874 569.873,473.484L569.873,469.859L566.162,469.859L566.162,493.687L569.873,493.687L569.873,481.507C569.873,475.901 572.754,472.663 577.198,472.663C580.763,472.663 583.351,475.128 583.351,478.897L583.351,493.687L587.062,493.687L587.062,481.507C587.062,475.901 589.992,472.663 594.436,472.663C598.049,472.663 600.637,475.128 600.637,478.897L600.637,493.687L604.349,493.687L604.349,478.269C604.349,472.856 600.442,469.279 595.363,469.279Z" style="fill:rgb(67,67,71);fill-rule:nonzero;"/>
            </g>
            <g transform="matrix(0.56084,0,0,0.56084,526.413,269.899)">
                <path d="M626.128,469.279C622.124,469.279 618.705,470.874 616.557,473.678L616.557,469.859L612.845,469.859L612.845,501.903L616.557,501.903L616.557,489.917C618.705,492.72 622.124,494.315 626.128,494.315C632.525,494.315 638.141,489.337 638.141,481.797C638.141,474.258 632.525,469.279 626.128,469.279ZM625.542,491.029C621.001,491.029 616.557,487.452 616.557,481.797C616.557,476.094 621.001,472.518 625.542,472.518C630.523,472.518 634.527,476.094 634.527,481.797C634.527,487.452 630.523,491.029 625.542,491.029Z" style="fill:rgb(67,67,71);fill-rule:nonzero;"/>
            </g>
            <g transform="matrix(0.56084,0,0,0.56084,526.413,269.899)">
                <rect x="645.026" y="458.888" width="3.711" height="34.799" style="fill:rgb(67,67,71);"/>
            </g>
            <g transform="matrix(0.56084,0,0,0.56084,526.413,269.899)">
                <path d="M660.066,460.193C658.601,460.193 657.527,461.353 657.527,462.658C657.527,464.059 658.601,465.123 660.066,465.123C661.531,465.123 662.655,464.059 662.655,462.658C662.655,461.353 661.531,460.193 660.066,460.193ZM661.971,493.687L661.971,469.859L658.211,469.859L658.211,493.687L661.971,493.687Z" style="fill:rgb(67,67,71);fill-rule:nonzero;"/>
            </g>
            <g transform="matrix(0.56084,0,0,0.56084,526.413,269.899)">
                <path d="M692.735,469.859L676.035,469.859L676.035,466.331C676.035,463.286 677.89,461.401 680.869,461.401C682.041,461.401 683.115,461.691 684.141,462.223L685.117,459.226C683.75,458.453 682.334,458.066 680.625,458.066C675.546,458.066 672.323,461.305 672.323,466.331L672.323,469.859L668.124,469.859L668.124,472.953L672.323,472.953L672.323,493.687L676.035,493.687L676.035,472.953L688.975,472.953L688.975,493.687L692.735,493.687L692.735,469.859ZM690.831,465.123C692.296,465.123 693.419,464.059 693.419,462.658C693.419,461.353 692.296,460.193 690.831,460.193C689.366,460.193 688.292,461.353 688.292,462.658C688.292,464.059 689.366,465.123 690.831,465.123Z" style="fill:rgb(67,67,71);fill-rule:nonzero;"/>
            </g>
            <g transform="matrix(0.56084,0,0,0.56084,526.413,269.899)">
                <path d="M712.561,490.884C707.629,490.884 703.625,487.356 703.625,481.797C703.625,476.336 707.629,472.663 712.561,472.663C716.126,472.663 719.349,474.596 720.423,478.269L723.988,477.206C722.523,472.324 717.835,469.279 712.561,469.279C705.774,469.279 700.011,474.306 700.011,481.797C700.011,489.385 705.774,494.315 712.561,494.315C717.884,494.315 722.621,491.319 723.939,486.437L720.521,485.519C719.349,489.095 716.126,490.884 712.561,490.884Z" style="fill:rgb(67,67,71);fill-rule:nonzero;"/>
            </g>
            <g transform="matrix(0.56084,0,0,0.56084,526.413,269.899)">
                <path d="M753.678,469.859L749.967,469.859L749.967,473.678C747.818,470.874 744.4,469.279 740.396,469.279C733.999,469.279 728.383,474.258 728.383,481.797C728.383,489.337 733.999,494.315 740.396,494.315C744.4,494.315 747.818,492.72 749.967,489.917L749.967,493.687L753.678,493.687L753.678,469.859ZM740.982,491.029C736.001,491.029 731.997,487.452 731.997,481.797C731.997,476.094 736.001,472.518 740.982,472.518C745.523,472.518 749.967,476.094 749.967,481.797C749.967,487.452 745.523,491.029 740.982,491.029Z" style="fill:rgb(67,67,71);fill-rule:nonzero;"/>
            </g>
            <g transform="matrix(0.56084,0,0,0.56084,526.413,269.899)">
                <path d="M798.4,469.859L794.249,469.859L785.46,488.902L776.865,469.859L772.665,469.859L783.457,493.349L779.502,501.903L783.653,501.903L798.4,469.859Z" style="fill:rgb(67,67,71);fill-rule:nonzero;"/>
            </g>
            <g transform="matrix(0.56084,0,0,0.56084,526.413,269.899)">
                <path d="M840.241,469.859L836.53,469.859L836.53,473.678C834.381,470.874 830.963,469.279 826.959,469.279C820.562,469.279 814.946,474.258 814.946,481.797C814.946,489.337 820.562,494.315 826.959,494.315C830.963,494.315 834.381,492.72 836.53,489.917L836.53,493.687L840.241,493.687L840.241,469.859ZM827.545,491.029C822.564,491.029 818.559,487.452 818.559,481.797C818.559,476.094 822.564,472.518 827.545,472.518C832.086,472.518 836.53,476.094 836.53,481.797C836.53,487.452 832.086,491.029 827.545,491.029Z" style="fill:rgb(67,67,71);fill-rule:nonzero;"/>
            </g>
            <g transform="matrix(0.56084,0,0,0.56084,526.413,269.899)">
                <path d="M862.118,469.279C858.065,469.279 854.988,470.923 853.035,473.823L853.035,458.888L849.324,458.888L849.324,493.687L853.035,493.687L853.035,482.232C853.035,476.046 856.356,472.663 861.386,472.663C865.39,472.663 868.076,475.659 868.076,480.106L868.076,493.687L871.787,493.687L871.787,479.429C871.787,473.388 867.929,469.279 862.118,469.279Z" style="fill:rgb(67,67,71);fill-rule:nonzero;"/>
            </g>
            <g transform="matrix(0.56084,0,0,0.56084,526.413,269.899)">
                <path d="M890.929,469.328C883.751,469.328 878.135,474.451 878.135,481.749C878.135,489.047 883.751,494.267 890.929,494.267C898.01,494.267 903.674,489.047 903.674,481.749C903.674,474.451 898.01,469.328 890.929,469.328ZM890.929,491.029C885.948,491.029 881.749,487.259 881.749,481.749C881.749,476.287 885.948,472.566 890.929,472.566C895.861,472.566 900.012,476.287 900.012,481.749C900.012,487.259 895.861,491.029 890.929,491.029Z" style="fill:rgb(67,67,71);fill-rule:nonzero;"/>
            </g>
            <g transform="matrix(0.56084,0,0,0.56084,526.413,269.899)">
                <path d="M923.94,469.618C919.496,469.618 916.224,472.179 914.271,475.707L914.271,469.859L910.511,469.859L910.511,493.687L914.271,493.687L914.271,484.504C914.271,478.076 917.543,473.291 923.94,473.291C924.379,473.291 924.917,473.291 925.356,473.339L925.649,469.811C924.965,469.618 924.526,469.618 923.94,469.618Z" style="fill:rgb(67,67,71);fill-rule:nonzero;"/>
            </g>
            <g transform="matrix(0.56084,0,0,0.56084,526.413,269.899)">
                <path d="M944.547,469.618C940.103,469.618 936.832,472.179 934.878,475.707L934.878,469.859L931.118,469.859L931.118,493.687L934.878,493.687L934.878,484.504C934.878,478.076 938.15,473.291 944.547,473.291C944.987,473.291 945.524,473.291 945.963,473.339L946.256,469.811C945.573,469.618 945.133,469.618 944.547,469.618Z" style="fill:rgb(67,67,71);fill-rule:nonzero;"/>
            </g>
            <g transform="matrix(0.56084,0,0,0.56084,526.413,269.899)">
                <path d="M974.579,469.859L970.868,469.859L970.868,473.678C968.719,470.874 965.301,469.279 961.297,469.279C954.9,469.279 949.284,474.258 949.284,481.797C949.284,489.337 954.9,494.315 961.297,494.315C965.301,494.315 968.719,492.72 970.868,489.917L970.868,493.687L974.579,493.687L974.579,469.859ZM961.883,491.029C956.902,491.029 952.897,487.452 952.897,481.797C952.897,476.094 956.902,472.518 961.883,472.518C966.424,472.518 970.868,476.094 970.868,481.797C970.868,487.452 966.424,491.029 961.883,491.029Z" style="fill:rgb(67,67,71);fill-rule:nonzero;"/>
            </g>
            <g transform="matrix(0.625121,0,0,0.583886,551.071,245.49)">
                <path d="M324.836,359.832C303.829,359.832 287.502,376.315 287.502,397.106C287.502,418.006 303.829,434.381 324.836,434.381C345.734,434.381 362.061,418.006 362.061,397.106C362.061,376.315 345.734,359.832 324.836,359.832ZM324.836,429.318C306.876,429.318 292.944,415.313 292.944,397.106C292.944,379.008 306.876,364.895 324.836,364.895C342.686,364.895 356.618,379.008 356.618,397.106C356.618,415.313 342.686,429.318 324.836,429.318Z" style="fill:rgb(243,116,105);fill-rule:nonzero;"/>
                <path d="M407.667,379.223C397.544,379.223 389.925,383.856 385.789,391.72L385.789,380.516L380.455,380.516L380.455,433.196L385.789,433.196L385.789,406.802C385.789,392.689 394.279,384.179 407.014,384.179C417.027,384.179 423.776,391.504 423.776,402.601L423.776,433.196L429.109,433.196L429.109,401.846C429.109,388.38 420.511,379.223 407.667,379.223Z" style="fill:rgb(243,116,105);fill-rule:nonzero;"/>
                <path d="M504.974,374.268L504.974,361.017L441.626,361.017L441.626,374.268L465.899,374.268L465.899,433.196L480.702,433.196L480.702,374.268L504.974,374.268Z" style="fill:rgb(67,67,71);fill-rule:nonzero;"/>
                <path d="M549.71,378.685C540.893,378.685 534.58,382.994 530.226,389.242L530.226,379.439L515.859,379.439L515.859,433.196L530.226,433.196L530.226,415.851C530.226,400.877 536.322,392.797 549.601,392.797L552.757,392.797L553.519,379.116C552.213,378.685 551.125,378.685 549.71,378.685Z" style="fill:rgb(67,67,71);fill-rule:nonzero;"/>
                <path d="M618.282,379.439L603.914,379.439L603.914,383.748C599.343,379.977 593.356,377.823 585.955,377.823C572.132,377.823 559.288,389.458 559.288,406.371C559.288,423.285 572.132,434.812 585.955,434.812C593.356,434.812 599.343,432.657 603.914,428.994L603.914,433.196L618.282,433.196L618.282,379.439ZM588.458,422.423C579.751,422.423 573.22,416.282 573.22,406.371C573.22,396.46 579.751,390.212 588.458,390.212C596.186,390.212 603.914,396.46 603.914,406.371C603.914,416.282 596.186,422.423 588.458,422.423Z" style="fill:rgb(67,67,71);fill-rule:nonzero;"/>
                <path d="M659.316,421.776C650.282,421.776 644.187,415.636 644.187,406.371C644.187,397.214 650.282,390.858 659.316,390.858C665.63,390.858 670.745,393.982 672.704,401.523L686.528,397.645C682.936,385.579 671.943,377.823 659.316,377.823C643.425,377.823 630.255,389.458 630.255,406.371C630.255,423.285 643.425,434.812 659.316,434.812C672.269,434.812 683.48,426.947 686.528,414.666L673.249,411.327C670.745,418.76 665.63,421.776 659.316,421.776Z" style="fill:rgb(67,67,71);fill-rule:nonzero;"/>
                <path d="M755.862,433.196L726.8,405.186L753.032,379.439L734.964,379.439L715.481,398.184L712.868,398.184L712.868,355.63L698.501,355.63L698.501,433.196L712.868,433.196L712.868,412.189L715.372,412.189L736.705,433.196L755.862,433.196Z" style="fill:rgb(67,67,71);fill-rule:nonzero;"/>
            </g>
            <g transform="matrix(2.70404,0,0,1.1474,-10573.9,-276.198)">
                <g transform="matrix(0.111168,-0.000229971,-7.91771e-05,0.362275,2783.7,-1130.79)">
                    <path d="M12946.3,4817.9L13167.2,4818.25" style="fill:none;stroke:rgb(67,67,71);stroke-width:7px;stroke-dasharray:14,28,0,0,0,0;"/>
                </g>
                <g transform="matrix(1,0,0,1,850.487,72.8676)">
                    <g transform="matrix(0.0381557,0,0,0.0880254,3342.35,395.671)">
                        <path d="M1623.48,684.479C1623.48,1090.38 1261.35,1443.04 1139.48,1550.23C1116.91,1570.08 1083.09,1570.08 1060.52,1550.23C938.65,1443.04 576.521,1090.38 576.521,684.479C576.521,395.367 810.888,161 1100,161C1389.11,161 1623.48,395.367 1623.48,684.479ZM1486.26,684.479C1486.26,470.942 1313.12,297.836 1099.54,297.836C885.961,297.836 712.82,470.942 712.82,684.479C712.82,898.016 885.961,1071.12 1099.54,1071.12C1313.12,1071.12 1486.26,898.016 1486.26,684.479Z" style="fill:rgb(243,116,105);"/>
                    </g>
                    <g transform="matrix(0.211997,1.17874e-16,-5.21285e-17,0.483143,3384.26,443.044)">
                        <path d="M-13.969,50.573L-13.969,30.954C-13.969,23.239 -7.715,16.984 0,16.984C7.715,16.984 13.969,23.239 13.969,30.954L13.969,50.573C13.969,42.858 7.715,36.604 0,36.604C-7.715,36.604 -13.969,42.858 -13.969,50.573Z" style="fill:rgb(248,149,37);fill-opacity:0.5;"/>
                    </g>
                    <g transform="matrix(0.211997,1.17874e-16,-5.21285e-17,0.483143,3384.26,457.387)">
                        <path d="M13.969,20.886L13.969,58.849C13.969,59.369 13.941,59.881 13.885,60.386C9.48,61.355 4.905,61.865 0.213,61.865C-4.634,61.865 -9.356,61.32 -13.896,60.289C-13.944,59.815 -13.969,59.335 -13.969,58.849L-13.969,20.886C-13.969,13.171 -7.715,6.917 0,6.917C7.715,6.917 13.969,13.171 13.969,20.886Z" style="fill:rgb(248,149,37);"/>
                    </g>
                    <g transform="matrix(0.211997,1.17874e-16,-5.21285e-17,0.483143,3392.26,443.044)">
                        <path d="M-13.969,25.219L-13.969,5.599C-13.969,-2.116 -7.715,-8.371 0,-8.371C7.715,-8.371 13.969,-2.116 13.969,5.599L13.969,25.219C13.969,17.504 7.715,11.25 0,11.25C-7.715,11.25 -13.969,17.504 -13.969,25.219Z" style="fill:rgb(26,168,149);fill-opacity:0.5;"/>
                    </g>
                    <g transform="matrix(0.211997,1.17874e-16,-5.21285e-17,0.483143,3392.26,457.387)">
                        <path d="M13.969,-4.468L13.969,35.628C6.892,45.27 -2.765,52.857 -13.969,57.341L-13.969,-4.468C-13.969,-12.183 -7.715,-18.437 0,-18.437C7.715,-18.437 13.969,-12.183 13.969,-4.468Z" style="fill:rgb(20,168,149);"/>
                    </g>
                    <g transform="matrix(0.211997,1.17874e-16,-5.21285e-17,0.483143,3376.34,441.284)">
                        <path d="M-13.969,68.958L-13.969,53.725C-13.969,46.01 -7.715,39.755 0,39.755C7.715,39.755 13.969,46.01 13.969,53.725L13.969,76.991C13.969,69.276 7.715,63.022 -0,63.022C-5.504,63.022 -10.265,66.205 -12.541,70.831C-13.028,70.216 -13.504,69.592 -13.969,68.958Z" style="fill:rgb(241,90,42);fill-opacity:0.5;"/>
                    </g>
                    <g transform="matrix(0.211997,1.17874e-16,-5.21285e-17,0.483143,3376.34,468.58)">
                        <path d="M13.969,20.493L13.969,32.038C13.969,32.743 13.917,33.435 13.816,34.112C3.412,29.917 -5.651,23.043 -12.541,14.334C-10.265,9.707 -5.504,6.524 0,6.524C7.715,6.524 13.969,12.778 13.969,20.493Z" style="fill:rgb(241,90,41);"/>
                    </g>
                    <g transform="matrix(0.211997,1.17874e-16,-5.21285e-17,0.483143,3376.34,468.58)">
                        <path d="M13.969,32.038L13.969,34.173C13.918,34.153 13.867,34.133 13.816,34.112C13.917,33.435 13.969,32.743 13.969,32.038Z" style="fill:rgb(251,170,33);"/>
                    </g>
                </g>
            </g>
        </g>
    </g>
</svg>
