<?xml version="1.0" encoding="UTF-8" standalone="no"?>
<!DOCTYPE svg PUBLIC "-//W3C//DTD SVG 1.1//EN" "http://www.w3.org/Graphics/SVG/1.1/DTD/svg11.dtd">
<svg width="100%" height="100%" viewBox="0 0 702 422" version="1.1" xmlns="http://www.w3.org/2000/svg" xmlns:xlink="http://www.w3.org/1999/xlink" xml:space="preserve" xmlns:serif="http://www.serif.com/" style="fill-rule:evenodd;clip-rule:evenodd;stroke-linejoin:round;stroke-miterlimit:2;">
    <g transform="matrix(1,0,0,1,0,-481.203)">
        <g id="_3" serif:id="3" transform="matrix(1,0,0,1,-526.312,275.864)">
            <rect x="526.312" y="205.339" width="701.751" height="421.712" style="fill:none;"/>
            <g transform="matrix(0.65227,0,0,0.654933,507.893,137.642)">
                <path d="M325.226,359.184C304.033,359.184 287.562,375.812 287.562,396.788C287.562,417.872 304.033,434.391 325.226,434.391C346.308,434.391 362.779,417.872 362.779,396.788C362.779,375.812 346.308,359.184 325.226,359.184ZM325.226,429.283C307.108,429.283 293.053,415.155 293.053,396.788C293.053,378.53 307.108,364.292 325.226,364.292C343.234,364.292 357.289,378.53 357.289,396.788C357.289,415.155 343.234,429.283 325.226,429.283Z" style="fill:rgb(243,116,105);fill-rule:nonzero;"/>
            </g>
            <g transform="matrix(0.65227,0,0,0.654933,507.893,137.642)">
                <path d="M408.788,378.747C398.576,378.747 390.89,383.42 386.717,391.354L386.717,380.051L381.336,380.051L381.336,433.196L386.717,433.196L386.717,406.569C386.717,392.332 395.282,383.746 408.129,383.746C418.231,383.746 425.039,391.136 425.039,402.331L425.039,433.196L430.42,433.196L430.42,401.57C430.42,387.985 421.745,378.747 408.788,378.747Z" style="fill:rgb(243,116,105);fill-rule:nonzero;"/>
            </g>
            <g transform="matrix(0.65227,0,0,0.654933,507.893,137.642)">
                <path d="M506.954,373.748L506.954,360.38L443.047,360.38L443.047,373.748L467.534,373.748L467.534,433.196L482.468,433.196L482.468,373.748L506.954,373.748Z" style="fill:rgb(67,67,71);fill-rule:nonzero;"/>
            </g>
            <g transform="matrix(0.65227,0,0,0.654933,507.893,137.642)">
                <path d="M552.084,378.203C543.19,378.203 536.821,382.551 532.429,388.854L532.429,378.964L517.935,378.964L517.935,433.196L532.429,433.196L532.429,415.698C532.429,400.592 538.578,392.441 551.975,392.441L555.159,392.441L555.928,378.638C554.61,378.203 553.512,378.203 552.084,378.203Z" style="fill:rgb(67,67,71);fill-rule:nonzero;"/>
            </g>
            <g transform="matrix(0.65227,0,0,0.654933,507.893,137.642)">
                <path d="M621.262,378.964L606.768,378.964L606.768,383.311C602.156,379.508 596.116,377.334 588.65,377.334C574.704,377.334 561.747,389.072 561.747,406.134C561.747,423.197 574.704,434.826 588.65,434.826C596.116,434.826 602.156,432.652 606.768,428.957L606.768,433.196L621.262,433.196L621.262,378.964ZM591.175,422.328C582.391,422.328 575.802,416.133 575.802,406.134C575.802,396.136 582.391,389.832 591.175,389.832C598.971,389.832 606.768,396.136 606.768,406.134C606.768,416.133 598.971,422.328 591.175,422.328Z" style="fill:rgb(67,67,71);fill-rule:nonzero;"/>
            </g>
            <g transform="matrix(0.65227,0,0,0.654933,507.893,137.642)">
                <path d="M662.659,421.676C653.545,421.676 647.396,415.481 647.396,406.134C647.396,396.897 653.545,390.484 662.659,390.484C669.027,390.484 674.188,393.636 676.165,401.244L690.11,397.331C686.487,385.159 675.396,377.334 662.659,377.334C646.627,377.334 633.341,389.072 633.341,406.134C633.341,423.197 646.627,434.826 662.659,434.826C675.726,434.826 687.036,426.892 690.11,414.503L676.714,411.134C674.188,418.633 669.027,421.676 662.659,421.676Z" style="fill:rgb(67,67,71);fill-rule:nonzero;"/>
            </g>
            <g transform="matrix(0.65227,0,0,0.654933,507.893,137.642)">
                <path d="M760.056,433.196L730.738,404.939L757.201,378.964L738.974,378.964L719.318,397.875L716.683,397.875L716.683,354.946L702.189,354.946L702.189,433.196L716.683,433.196L716.683,412.003L719.209,412.003L740.731,433.196L760.056,433.196Z" style="fill:rgb(67,67,71);fill-rule:nonzero;"/>
            </g>
        </g>
    </g>
</svg>
