<?xml version="1.0" encoding="UTF-8" standalone="no"?>
<svg
   width="701.75098"
   height="421.71201"
   viewBox="0 0 701.75098 421.71201"
   version="1.1"
   xml:space="preserve"
   style="clip-rule:evenodd;fill-rule:evenodd;stroke-linecap:round;stroke-linejoin:round;stroke-miterlimit:1.5"
   id="svg13"
   sodipodi:docname="4.svg"
   inkscape:version="1.4.2 (f4327f4, 2025-05-13)"
   xmlns:inkscape="http://www.inkscape.org/namespaces/inkscape"
   xmlns:sodipodi="http://sodipodi.sourceforge.net/DTD/sodipodi-0.dtd"
   xmlns="http://www.w3.org/2000/svg"
   xmlns:svg="http://www.w3.org/2000/svg"
   xmlns:serif="http://www.serif.com/"><defs
   id="defs13" /><sodipodi:namedview
   id="namedview13"
   pagecolor="#ffffff"
   bordercolor="#000000"
   borderopacity="0.25"
   inkscape:showpageshadow="2"
   inkscape:pageopacity="0.0"
   inkscape:pagecheckerboard="0"
   inkscape:deskcolor="#d1d1d1"
   inkscape:zoom="0.91587678"
   inkscape:cx="374.50453"
   inkscape:cy="297.52911"
   inkscape:window-width="1920"
   inkscape:window-height="991"
   inkscape:window-x="-9"
   inkscape:window-y="-9"
   inkscape:window-maximized="1"
   inkscape:current-layer="g11" />
    <g
   transform="translate(-770.24201,-489.651)"
   id="g13">
        <g
   id="_4"
   serif:id="4"
   transform="translate(243.93,284.312)">
            <rect
   x="526.31201"
   y="205.339"
   width="701.75098"
   height="421.71201"
   style="fill:none"
   id="rect1" />
            <g
   transform="matrix(2.70404,0,0,1.1474,-10573.9,-211.68)"
   id="g12">
                <g
   id="g11"
   transform="matrix(2.6374791,0,0,2.3878895,-6942.8893,-767.0109)">
                    <g
   transform="matrix(0.12820964,-2.5332918e-4,-9.1314657e-5,0.39907132,2563.5233,-1300.7319)"
   id="g1">
                        <path
   d="m 12946.3,4817.9 220.9,0.35"
   style="fill:none;stroke:#434347;stroke-width:7px;stroke-dasharray:14, 28, 0, 0, 0, 0"
   id="path1" />
                    </g>
                    <g
   transform="matrix(1.1532963,0,0,1.1015701,334.13255,26.059223)"
   id="g10">
                        <g
   transform="matrix(0.0381557,0,0,0.0880254,3342.35,395.671)"
   id="g2">
                            <path
   d="m 1623.48,684.479 c 0,405.901 -362.13,758.561 -484,865.751 -22.57,19.85 -56.39,19.85 -78.96,0 C 938.65,1443.04 576.521,1090.38 576.521,684.479 576.521,395.367 810.888,161 1100,161 c 289.11,0 523.48,234.367 523.48,523.479 z m -137.22,0 c 0,-213.537 -173.14,-386.643 -386.72,-386.643 -213.579,0 -386.72,173.106 -386.72,386.643 0,213.537 173.141,386.641 386.72,386.641 213.58,0 386.72,-173.104 386.72,-386.641 z"
   style="fill:#f37469"
   id="path2" />
                        </g>
                        <g
   transform="matrix(0.211997,0,0,0.483143,3384.26,443.044)"
   id="g3">
                            <path
   d="M -13.969,50.573 V 30.954 c 0,-7.715 6.254,-13.97 13.969,-13.97 7.715,0 13.969,6.255 13.969,13.97 V 50.573 C 13.969,42.858 7.715,36.604 0,36.604 c -7.715,0 -13.969,6.254 -13.969,13.969 z"
   style="fill:#f89525;fill-opacity:0.5"
   id="path3" />
                        </g>
                        <g
   transform="matrix(0.211997,0,0,0.483143,3384.26,457.387)"
   id="g4">
                            <path
   d="m 13.969,20.886 v 37.963 c 0,0.52 -0.028,1.032 -0.084,1.537 -4.405,0.969 -8.98,1.479 -13.672,1.479 -4.847,0 -9.569,-0.545 -14.109,-1.576 -0.048,-0.474 -0.073,-0.954 -0.073,-1.44 V 20.886 c 0,-7.715 6.254,-13.969 13.969,-13.969 7.715,0 13.969,6.254 13.969,13.969 z"
   style="fill:#f89525"
   id="path4" />
                        </g>
                        <g
   transform="matrix(0.211997,0,0,0.483143,3392.26,443.044)"
   id="g5">
                            <path
   d="M -13.969,25.219 V 5.599 c 0,-7.715 6.254,-13.97 13.969,-13.97 7.715,0 13.969,6.255 13.969,13.97 v 19.62 C 13.969,17.504 7.715,11.25 0,11.25 c -7.715,0 -13.969,6.254 -13.969,13.969 z"
   style="fill:#1aa895;fill-opacity:0.5"
   id="path5" />
                        </g>
                        <g
   transform="matrix(0.211997,0,0,0.483143,3392.26,457.387)"
   id="g6">
                            <path
   d="M 13.969,-4.468 V 35.628 C 6.892,45.27 -2.765,52.857 -13.969,57.341 V -4.468 c 0,-7.715 6.254,-13.969 13.969,-13.969 7.715,0 13.969,6.254 13.969,13.969 z"
   style="fill:#14a895"
   id="path6" />
                        </g>
                        <g
   transform="matrix(0.211997,0,0,0.483143,3376.34,441.284)"
   id="g7">
                            <path
   d="M -13.969,68.958 V 53.725 c 0,-7.715 6.254,-13.97 13.969,-13.97 7.715,0 13.969,6.255 13.969,13.97 V 76.991 C 13.969,69.276 7.715,63.022 0,63.022 c -5.504,0 -10.265,3.183 -12.541,7.809 -0.487,-0.615 -0.963,-1.239 -1.428,-1.873 z"
   style="fill:#f15a2a;fill-opacity:0.5"
   id="path7" />
                        </g>
                        <g
   transform="matrix(0.211997,0,0,0.483143,3376.34,468.58)"
   id="g8">
                            <path
   d="m 13.969,20.493 v 11.545 c 0,0.705 -0.052,1.397 -0.153,2.074 C 3.412,29.917 -5.651,23.043 -12.541,14.334 -10.265,9.707 -5.504,6.524 0,6.524 c 7.715,0 13.969,6.254 13.969,13.969 z"
   style="fill:#f15a29"
   id="path8" />
                        </g>
                        <g
   transform="matrix(0.211997,0,0,0.483143,3376.34,468.58)"
   id="g9">
                            <path
   d="m 13.969,32.038 v 2.135 c -0.051,-0.02 -0.102,-0.04 -0.153,-0.061 0.101,-0.677 0.153,-1.369 0.153,-2.074 z"
   style="fill:#fbaa21"
   id="path9" />
                        </g>
                    </g>
                </g>
            </g>
        </g>
    </g>
</svg>
