<?xml version="1.0" encoding="UTF-8" standalone="no"?>
<!DOCTYPE svg PUBLIC "-//W3C//DTD SVG 1.1//EN" "http://www.w3.org/Graphics/SVG/1.1/DTD/svg11.dtd">
<svg width="100%" height="100%" viewBox="0 0 702 422" version="1.1" xmlns="http://www.w3.org/2000/svg" xmlns:xlink="http://www.w3.org/1999/xlink" xml:space="preserve" xmlns:serif="http://www.serif.com/" style="fill-rule:evenodd;clip-rule:evenodd;stroke-linecap:round;stroke-linejoin:round;stroke-miterlimit:1.5;">
    <g transform="matrix(1,0,0,1,-770.242,-489.651)">
        <g id="_4" serif:id="4" transform="matrix(1,0,0,1,243.93,284.312)">
            <rect x="526.312" y="205.339" width="701.751" height="421.712" style="fill:none;"/>
            <g transform="matrix(2.70404,0,0,1.1474,-10573.9,-211.68)">
                <g>
                    <g transform="matrix(0.111168,-0.000229971,-7.91771e-05,0.362275,2783.7,-1130.79)">
                        <path d="M12946.3,4817.9L13167.2,4818.25" style="fill:none;stroke:rgb(67,67,71);stroke-width:7px;stroke-dasharray:14,28,0,0,0,0;"/>
                    </g>
                    <g transform="matrix(1,0,0,1,850.487,72.8676)">
                        <g transform="matrix(0.0381557,0,0,0.0880254,3342.35,395.671)">
                            <path d="M1623.48,684.479C1623.48,1090.38 1261.35,1443.04 1139.48,1550.23C1116.91,1570.08 1083.09,1570.08 1060.52,1550.23C938.65,1443.04 576.521,1090.38 576.521,684.479C576.521,395.367 810.888,161 1100,161C1389.11,161 1623.48,395.367 1623.48,684.479ZM1486.26,684.479C1486.26,470.942 1313.12,297.836 1099.54,297.836C885.961,297.836 712.82,470.942 712.82,684.479C712.82,898.016 885.961,1071.12 1099.54,1071.12C1313.12,1071.12 1486.26,898.016 1486.26,684.479Z" style="fill:rgb(243,116,105);"/>
                        </g>
                        <g transform="matrix(0.211997,1.17874e-16,-5.21285e-17,0.483143,3384.26,443.044)">
                            <path d="M-13.969,50.573L-13.969,30.954C-13.969,23.239 -7.715,16.984 0,16.984C7.715,16.984 13.969,23.239 13.969,30.954L13.969,50.573C13.969,42.858 7.715,36.604 0,36.604C-7.715,36.604 -13.969,42.858 -13.969,50.573Z" style="fill:rgb(248,149,37);fill-opacity:0.5;"/>
                        </g>
                        <g transform="matrix(0.211997,1.17874e-16,-5.21285e-17,0.483143,3384.26,457.387)">
                            <path d="M13.969,20.886L13.969,58.849C13.969,59.369 13.941,59.881 13.885,60.386C9.48,61.355 4.905,61.865 0.213,61.865C-4.634,61.865 -9.356,61.32 -13.896,60.289C-13.944,59.815 -13.969,59.335 -13.969,58.849L-13.969,20.886C-13.969,13.171 -7.715,6.917 0,6.917C7.715,6.917 13.969,13.171 13.969,20.886Z" style="fill:rgb(248,149,37);"/>
                        </g>
                        <g transform="matrix(0.211997,1.17874e-16,-5.21285e-17,0.483143,3392.26,443.044)">
                            <path d="M-13.969,25.219L-13.969,5.599C-13.969,-2.116 -7.715,-8.371 0,-8.371C7.715,-8.371 13.969,-2.116 13.969,5.599L13.969,25.219C13.969,17.504 7.715,11.25 0,11.25C-7.715,11.25 -13.969,17.504 -13.969,25.219Z" style="fill:rgb(26,168,149);fill-opacity:0.5;"/>
                        </g>
                        <g transform="matrix(0.211997,1.17874e-16,-5.21285e-17,0.483143,3392.26,457.387)">
                            <path d="M13.969,-4.468L13.969,35.628C6.892,45.27 -2.765,52.857 -13.969,57.341L-13.969,-4.468C-13.969,-12.183 -7.715,-18.437 0,-18.437C7.715,-18.437 13.969,-12.183 13.969,-4.468Z" style="fill:rgb(20,168,149);"/>
                        </g>
                        <g transform="matrix(0.211997,1.17874e-16,-5.21285e-17,0.483143,3376.34,441.284)">
                            <path d="M-13.969,68.958L-13.969,53.725C-13.969,46.01 -7.715,39.755 0,39.755C7.715,39.755 13.969,46.01 13.969,53.725L13.969,76.991C13.969,69.276 7.715,63.022 -0,63.022C-5.504,63.022 -10.265,66.205 -12.541,70.831C-13.028,70.216 -13.504,69.592 -13.969,68.958Z" style="fill:rgb(241,90,42);fill-opacity:0.5;"/>
                        </g>
                        <g transform="matrix(0.211997,1.17874e-16,-5.21285e-17,0.483143,3376.34,468.58)">
                            <path d="M13.969,20.493L13.969,32.038C13.969,32.743 13.917,33.435 13.816,34.112C3.412,29.917 -5.651,23.043 -12.541,14.334C-10.265,9.707 -5.504,6.524 0,6.524C7.715,6.524 13.969,12.778 13.969,20.493Z" style="fill:rgb(241,90,41);"/>
                        </g>
                        <g transform="matrix(0.211997,1.17874e-16,-5.21285e-17,0.483143,3376.34,468.58)">
                            <path d="M13.969,32.038L13.969,34.173C13.918,34.153 13.867,34.133 13.816,34.112C13.917,33.435 13.969,32.743 13.969,32.038Z" style="fill:rgb(251,170,33);"/>
                        </g>
                    </g>
                </g>
            </g>
        </g>
    </g>
</svg>
